<svg id="Capa_1" data-name="Capa 1" xmlns="http://www.w3.org/2000/svg" viewBox="0 0 60 380"><title>logo-solid</title><path d="M48.58,7.18l-3.9,15.44-4,15.4c-1.32,5.14-2.73,10.25-4.09,15.38L32.47,68.77,24.05,99.46l-4.29,15.32L15.45,130.1l-3.34-4.59c6.12,0,12.24,0,18.36.14l18.36.23,5.3.07-1.54,5.16-4.54,15.25c-1.52,5.08-3,10.17-4.58,15.23L34.18,192l-4.65,15.21-4.73,15.19-9.5,30.36-4.15-5.63,9.41,0,9.41.08,18.82.19,5.47.06-1.6,5.15-4.74,15.2q-2.35,7.61-4.79,15.19l-9.68,30.34-9.87,30.29c-1.63,5.05-3.34,10.08-5,15.12l-5,15.11-1.37-1.84,17.92.66,9,.37,9,.41-9,.41-9,.37-17.92.66-1.88.07.51-1.91L14.9,357.7c1.38-5.13,2.73-10.26,4.15-15.38l8.45-30.71,8.64-30.66q2.15-7.67,4.37-15.31l4.42-15.3,3.87,5.2L30,255.74l-9.41.08-9.41,0-5.88,0L7,250.22l9.29-30.43L21,204.58l4.75-15.18L35.21,159c1.57-5.07,3.2-10.11,4.82-15.16l4.85-15.15L48.65,134l-18.35-.61c-6.12-.18-12.23-.47-18.35-.7l-4.74-.18,1.41-4.41,4.83-15.16,4.84-15.15,9.86-30.26,5-15.1c1.69-5,3.33-10.07,5.05-15.09l5.12-15.07Z"/></svg>