<svg id="Capa_1" data-name="Capa 1" xmlns="http://www.w3.org/2000/svg" viewBox="0 0 900 1080"><title>silueta</title><path d="M753.68,892c5.77-3,11.4-6.32,17.35-8.94,14.67-6.46,29.23-13.55,45.94-12.8.29,0,.59-.5,1.19-1a45.35,45.35,0,0,0-16.46-6.73c-17.56-3.78-34.22-10.07-50.6-17.34-5.18-2.3-10.34-5.06-16.3-5.27-6.66-.23-13.32-.77-20-1-15.11-.57-29.24,2.35-41.44,12a20.77,20.77,0,0,1-3.15,1.73c1-2,2-4,2.85-6.05.77-1.84.8-4.11-1.57-4.19-3-.11-5,2.18-5,5.18-.07,2.4-.85,6,3.88,5a34.3,34.3,0,0,1-2.76,3c-11.88,10.19-21.79,22.34-33,33.21-8.39,8.15-15.29,17.56-22.85,26.41a115.21,115.21,0,0,0-13.88,21.13c-5.29,10-12.3,19.45-13.78,31.2a4.26,4.26,0,0,1-.52,1.26c-3.9,7.92-3.54,16.32-3,24.82.29,4.55,3.64,8.09,3.7,12.49a38,38,0,0,0,3.63,16.2,33.89,33.89,0,0,1,3.51,14c.05,2.58-.52,5-2.79,6.36-6.35,3.92-7.13,10.84-9.36,17-.34,1,.07,2.28-1.29,2.62a2.61,2.61,0,0,1-2.69-1.34c-5.18-6.93-11.37-13-16.8-19.7-11.44-14.08-23.08-27.9-36.62-40.06-10.95-9.84-22-19.42-36-24.83-5.07-2-10-3.62-15.31-.95-10.12,5.06-20.11,10.26-26.07,20.61-.66,1.15-1.69,2.56-3.23,1.65-1.25-.74-.57-2.17-.2-3.32,3.86-11.74,7.74-23.48,11.56-35.24.33-1,1.24-2.21-.43-3.45-6.66,15-12.65,30.07-19.1,45-1.21-5.68.47-10.83,2-15.9,7.86-25.35,21.17-48.2,33.35-71.53,7-13.48,14.54-26.73,21.17-40.43a268.35,268.35,0,0,0,18.15-50.66c3.76-14.73.83-27.75-8.85-39.35-1.33-1.59-3.88-3.15-3.86-4.7.08-6-5.11-8.12-8.08-11.77-5.26-6.48-12.35-11.14-18-17.2-7.07-7.6-14.54-14.82-21.48-22.52-8.82-9.78-18.36-18.86-27.46-28.36-10.58-11-21.54-21.71-32.48-32.4-1.28-1.26-2.83-3-4.94-2.81a5.56,5.56,0,0,0-4.43,2.87c-1.09,2.15,1,3.34,2.17,4.53,15.37,15.62,30.87,31.1,46.21,46.76,13.74,14,27.16,28.37,41,42.28,9.48,9.51,19.66,18.31,28.33,28.63a32.81,32.81,0,0,1,6.38,12.86c1.92,7-1.26,13-3.14,19.29-7.18,24.09-17.24,47-28.91,69.17q-14.62,27.76-28.67,55.83c-6.86,13.63-13.3,27.38-17.22,42.13-1.75,6.57-4.33,13.42-.3,20.26,1.32,2.25-.34,3-2.23,3.18a26.28,26.28,0,0,1-8.55-1c-13-3.45-26.33-5.67-39.56-8.22-7.41-1.43-15-2.32-21.94-5.69-1.46-.72-3.37-1.27-3.17-3.37.18-1.83,2-2.11,3.38-2.58,4.45-1.47,9.49-2,11.31-7.47a2,2,0,0,1,1-.87c7.58-3.43,9.43-11.2,10-17.62.75-9,3.39-17.39,4.59-26.15.68-5,2-10,2.94-14.9.81-4.3.31-9,1.89-13.32,1.14-3.09,2.35-6.62.81-9.21-2.14-3.58,4.16-4.29,1.66-8.16-1.32-2.05,2.82-4.8,3.93-7.78,2.08-5.64,3.39-11.55,5.65-17.17,1.95-4.85,1.91-11,3.79-16.32,1.42-4-.34-8.43,1.59-12.47,1.1-2.32.87-5,.91-7.58s-.75-5.41-.14-7.5a18.07,18.07,0,0,0,.54-7.93c-1.77-9.08.6-17.94.51-26.91-.19-19.18,1.46-38.4-4.08-57.23-.86-3-2.91-4.06-4.64-5.76-1.17-1.15-2.95.72-2.58,1.17,3.45,4.2-.52,8.36-2,10.09a27.51,27.51,0,0,0-6.23,14c-.18,1.13-1.24,1.95.16,2.91-1.17,1.49,4.11,4.28-1.06,5.11-.73.11-.1,1.43.56,1.73a11,11,0,0,0,3.42,1.06c2.55.28,4.3,1.27,4.75,4,.55,3.34-3.06,1.54-4.17,3.66,2.51,1.53,5.29,3.26,4.25,6.9s-.7,7.49-.83,11.26A25.72,25.72,0,0,1,388.38,798c-2.25,4.68-6.38,8.62-5.79,14.46a1.3,1.3,0,0,1-.63,1c-3,1-2.59,3.76-3.06,6-1.24,6.07-1.92,12.3-7,16.86-5.45,4.92-6.29,11.29-4.73,18.07.33,1.43-.5,1-1,1.3-3,2-3.5,5.8-.77,8.35,2.26,2.11,3.13,4.69,4.11,7.41,1.29,3.61.42,7.23-2.19,9-2.81,1.95-5.06-1.33-7.11-3.28a16.83,16.83,0,0,0-15.05-4.47,85.54,85.54,0,0,0-13.58,3.66c-9.58,3.41-16.85.81-22.3-7.47-.67-1-1.39-2-2-3-2.91-5-6-10-5.92-16,.13-6.58-3.15-13.44,1.3-19.75.08-.12-.23-.52-.36-.8-1.77-.8-2.77,3.22-4.6.88-1.46-1.88-.87-4,.23-6,1.85-3.3,3.74-6.58,5.56-9.9s2.94-7.24,1.25-10.9a94.11,94.11,0,0,0-12.56-20.46c-2-2.43-2.73-4.54-2-7.37.48-1.91,1.11-3.78,1.59-5.69.42-1.65.67-3.45-.83-4.65-2.69-2.13-6-2.3-9.11-1.65s-3.24,3.65-3.7,6.18c-.32,1.77-.22,3.56,1.92,4,2.39.46,2.65-1.31,2.74-3.13.07-1.21.25-2.8,1.88-2.51,1.82.32,1.56,2,1.2,3.34-.63,2.37-1.21,4.66-.09,7.08,1.59,3.4,1.58,7.07,1.44,10.72-.17,4.26-1.52,5.07-5.39,3.52a4.72,4.72,0,0,1-3.4-4.81c0-2.27.09-4.55-.06-6.81-.09-1.34-.38-3-2.2-2.89-1.46.07-1.86,1.52-1.88,2.73-.18,12.09-6.23,22.36-10.23,33.26-3.76,10.24-9.68,19.49-13.29,29.85-2.32,6.69-7.17,12.25-10.79,18.33-2.55,4.28-6.89,8-10.72,11.56-5.25,4.93-6.7,10.42-5.14,17.21,1.13,4.88.16,9.59-1.86,14.17-5.73,13-11.35,26-18.62,38.24-.77,1.3-1.37,2.7-2,4.06a11,11,0,0,0-.51,9.24c1.14,2.88,1.77,5.93.91,8.91-2,7-3.94,14-6.53,20.78-3.44,9-5.49,18.61-10.74,26.92a12.24,12.24,0,0,0-1.34,4.33A116.81,116.81,0,0,1,176.6,1041a268.2,268.2,0,0,0-12.07,39H34.45c3.25-7,9.54-11.24,14.93-16.23,2.32-2.14,5.92-1.14,8.81-.71,4.7.71,8.8-1.62,13.26-1.94,1-.06,2.19-1,1.66-2.23-.45-1.06-1.58-.44-2.43-.21-3.3.91-6-.77-8.6-2.26-3.18-1.82-6.77-1-10-2.15-1.85-.64-4.92,1.61-5.78-.8-1-3-2-6.26-.65-9.67a28.35,28.35,0,0,1,6.72-10.57c6.32-5.73,10.07-11.85,11-20.71,1.24-11.5,9.42-18,20.14-21.46,2.75-.88,2.74-.91,4.28-4.22-4.56.84-7.87-2.44-12.09-2.88-2.57-.26-3.65-5.52-2.15-7.89,2.89-4.56,7.39-7,11.88-9.56,1.73-1,6.92-2.36.63-4.76a1.29,1.29,0,0,1-.57-.66c-.43-.93,2.19-9.2,3.16-9.71a4.6,4.6,0,0,0,2.38-2.6,28.68,28.68,0,0,1,12.13-15c2.36-1.5,2.48-4.07.75-6.35a17.18,17.18,0,0,0-3-2.81c-2-1.61-5.83-2.22-4.72-5.74,1.27-4,2-8.54,6.73-10.77,7-3.32,7.23-4,6.56-12a12.47,12.47,0,0,1,1.94-8.24c1.78-2.67,1.11-4.62-1.15-6.71-3.54-3.28-6.86-6.73-8.07-11.76-1.14-4.76.62-7.75,5.46-8.18,8.73-.79,17.45-1.67,26.2-2.21,4.22-.26,7.12-2.34,9.44-5.5,1.59-2.16-.3-8.18-2.58-8.7-1.39-.31-5,3.31-4.68,5.07.63,4-.82,4.85-4.15,2.86-3-1.79-6.65-.76-9.65-2.22-4.16-2-9-2.41-11.74-7.52-2-3.76-7.22-3-10.07.65a59.58,59.58,0,0,0-3.8,6.19c-.56.92-1.16,1.93-2.44,1.59-1.46-.39-1.53-1.74-1.64-2.94-.35-3.88,2.56-7.7,7.65-9.64a80.93,80.93,0,0,1,18.36-5.08c3.61-.46,7.19-1.11,10.8-1.54,6.47-.77,10.66-4.2,14.55-9.54,5-6.81,6.87-14.09,8.15-22.15,1.17-7.3-3.39-12-6.06-17.5-1.67-3.48-2.44-6.41-.07-9.71a5.1,5.1,0,0,1,3.63-2.45c11.31-1.31,16-10.13,20.42-18.71,4.21-8.1,4.54-16.88,4.19-26.06-.62-16-.94-32.09.56-48.1.94-10,4.28-12.27,14.05-9.85,1.46.36,2.83,1.06,4.27,1.53,5.88,1.92,10.41-1.64,9.8-7.72-.21-2.11-.64-4.2-.77-6.31-.11-1.85.1-3.8,2.11-4.63a4.45,4.45,0,0,1,5.11.84c3.18,3.57,7.87,5.13,11,8.67a4.69,4.69,0,0,0,6.59.57c1.76-1.39.58-3.66-.55-5.33a78.31,78.31,0,0,0-11.17-13.71c-6-5.62-9.61-12.79-12.7-20.25-.56-1.35-1.43-2.94-.05-4.23s2.91-.24,4.11.58c4.18,2.85,9,4.16,13.68,5.67,3.25,1,5-.07,4.74-3.62-.18-2.53-1.12-5-1.53-7.54-.27-1.6-.73-3.45.88-4.65a4.64,4.64,0,0,1,5.58,0c3.37,2.5,7.22,1.35,10.89,2.34.21-2.71-1.76-3.71-3-5.06a159.44,159.44,0,0,1-21.48-28.11c-3.53-6-3.82-12.68-5.79-19-.29-.95-.4-2.26.76-2.87s2.4.2,3.28,1c8.78,7.57,20.14,11.58,28.09,20.29a5.52,5.52,0,0,0,1.06.87c1.09.73,2.25,2.31,3.54,1.27,1.58-1.27,0-2.78-.61-4-1.06-2.33-2.28-4.61-3.57-6.83-4.1-7.07-2.9-14.74-1.82-22.06,1.25-8.46.41-17,1.48-25.37.11-.9,0-1.83.1-2.72.19-1.44-.26-3.52,1.61-3.83s2,1.85,2.51,3.18a71.82,71.82,0,0,0,8.92,17.68c-1.53-5.34-3.15-10.66-4.58-16a181.91,181.91,0,0,1-5.41-29,60.32,60.32,0,0,1,2.44-23.79c2-6.4,2.66-12.7-.75-19.3-5.6-10.83-2.67-17.43,8.76-22.21,13.35-5.59,27.5-7.17,41.73-8.36,14.52-1.22,29.07-1,43.62-1a118.92,118.92,0,0,0,17.4-1.49c-3.36-2.62-7.51-1.7-12.09-3.12,3.75-1.82,6.89-.81,9.8-1.38,1.78-.34,3.74-.08,4.47-2.31,1-3.1,3.3-2.23,5.19-1.39,2.53,1.12,1.66,3.12.84,5-.64,1.47-2.54,2.27-2.3,4.22,1.36.91,2-.1,2.6-.93,2-3,4-6.09,5.94-9.15,1.06-1.64.87-3.45.69-5.29-.24-2.4-.43-4.82-.45-7.23,0-5.7-2.54-7.94-8.05-6.29a89.3,89.3,0,0,1-12.47,2.3,11.85,11.85,0,0,1-8-1.86c1.39-2.15,3.49-2.05,5.29-2.32,5.39-.81,10.8-1.55,16.22-2.14,3.46-.38,5-2.06,5.29-5.55.76-8.57.69-17.23,2.57-25.69.19-.85-.21-2.08,1-2.23s1.25,1,1.41,1.92c.79,4.48,1.25,8.83.12,13.47-1.37,5.56-2,11.34.13,17,.93,2.44,1.2,4.77-.55,7.29s.18,5,1.29,7.2a1.43,1.43,0,0,0,2.6-.22,30.62,30.62,0,0,1,6.67-8.86c1-1,.54-2.71-.4-3.78-2-2.31-1.44-4.59-.65-7.2,2.78-9.2,8.17-17.23,11.42-26.2.58-1.62,2.17-3,1.18-5.3-2.81,1.73-4.34,4.41-5.66,7-2.81,5.47-6.42,10.62-7.25,17-.23,1.72-.91,4-3.24,3.7s-2.19-2.56-2.21-4.36c0-1.51-.41-3.28.22-4.49,4.18-8,5.46-16.92,7.89-25.47.42-1.44,1.58-3.25,1.09-4.27-2.46-5.18-.83-10,.72-14.85.29-.9.52-2.07-.74-2.15-6.34-.4-3.11-5.05-2.58-7.18,2.44-9.83,4.58-19.46-.23-29.22-1.2-2.45-.54-5,.64-7.43,2.47-5.12,1.72-8.73-3.52-10.73-10.43-4-19.06-10.81-27.3-17.71C344.36,233,332,222.64,322.13,209.83c-3.36-4.37-4.76-9.74-5.63-15.2a97.84,97.84,0,0,1,1-35.27,111.3,111.3,0,0,1,9.09-26.82,83.9,83.9,0,0,1,15-21.82c5.26-5.42,11.7-9.09,17.7-13.32a136.11,136.11,0,0,1,22.07-12.54c8.25-3.74,15.95-8.45,24.1-12.28,4.49-2.11,9.37-3.36,13.9-5.39,2-.87,5.2-1,4.33-5-.3-1.4,3.09-2.85,3.85-2.17,3.89,3.5,7.07.22,10.27-.8,5.75-1.82,11.27-4.32,17.13-5.87,1.19-.32,2.75-.46,3.48-2.77-6.72.39-11.79,5.42-18.62,5.29a5.7,5.7,0,0,1,3.88-2.75c7.58-2.09,15-4.81,22.9-5.57,1.43-.14,3.82-1.69,3.56,1.87-.06.89,1,.73,1.79.54,10.43-2.41,21-2.9,31.67-3.26,12.32-.41,24.68-1.22,37-1.88,1.95-.11,3.92,0,5.88,0,.58,0,1.66.2,1.66.17.82-5,3.79-1.42,5.86-1.5,14-.56,28-1.84,42.17-2-4.4-1.58-9-.78-13.52-1.5,5.78-1.6,11.63-1.47,17.49-1.31.59,0,1.67.19,1.69.35.4,5.82,5,3,7.36,3,7.88.18,15.71,1.12,23.58,1.38a21.92,21.92,0,0,0,5.35-.22c-3.07-1.64-6.8-.3-10.11-2.46,4.4-1.76,8.71-1.1,12.62-.2,3.42.78,7.83-1,10.31,3.12.15.25,1.18.23,1.63,0,5.85-3,11.19-1.71,16.5,1.55a12.44,12.44,0,0,0,8.46,2c4-.48,8.09,1.49,12.28,2s8.68.88,13,1.67c2.24.42,4.57.53,6.06,2.62a2.36,2.36,0,0,0,2.38.87c8.29-.49,15.53,2.8,23.16,5.49,4.45,1.57,7.4,5.86,12.61,5.8,2.88,0,4.76,3,7.23,4.48,9.5,5.6,18.86,11.67,25.74,20.3,8.91,11.17,18.53,22,23.12,36.07,1.74,5.32,6.35,9.06,8.74,14.21a268.59,268.59,0,0,1,20.63,64.68c1.22,6.68,2.94,13.26,3.7,20a75.41,75.41,0,0,1,.14,19c-1.11,8,.12,16.18-1.3,24.37-2.63,15.1-8.34,28.16-20.87,37.42-8.4,6.21-17.61,11-26.91,15.91-10.25,5.35-21.09,9.82-30.53,16.75-1.89,1.4-4.4,1.92-6.5,3.08-3.26,1.81-3.77,4.41-1.93,7.66,1.37,2.42,3.43,4.57,3.69,8.06-2.72-.86-3-3.31-4.38-4.73-.53-.55-1.07-1.29-1.9-.85a1.39,1.39,0,0,0-.37,2c3,5.11,3.22,11.38,6.81,16.27a32.28,32.28,0,0,1,5,10.66c.8,2.86.32,3.83-2.69,2.42-1.15-.54-2.86-1.44-3.5.35-.46,1.26,1.16,2.11,2.21,2.47a14.5,14.5,0,0,1,9.92,11.45,36.42,36.42,0,0,1,.14,14.34c-1.06,5.18-1.88,9.6,1.36,14.95,3.09,5.12,4.62,11.4,7.32,17a9,9,0,0,1-.78,9.49c-2.07,3-3.67,6.18-2.11,10.19.83,2.14-.54,4.44-1,6.66-.55,2.91-.73,6.4,1.85,7.79s5.62,0,7.93-2c1-.89,2-1.85,3-2.82,2.71-2.7,5.57-3.65,8.76-.77s4.68,8.77,1.81,11c-7.1,5.45-4.43,11.77-1.76,17.53a77.27,77.27,0,0,1,5.78,17.16c3.4,16.91,7.66,33.79,6.86,51.23-.64,13.92,1.35,27.87-.67,41.76-.32,2.24.7,4.09,1.83,6,2.44,4,1.91,7.87-1.14,11.29a26.89,26.89,0,0,1-14.46,8.9c-5.32,1.18-10.54,2.79-15.77,4.34-1.66.49-4,.81-3.55,3.31.38,2.25,2.48,2.4,4.32,2.47,1.36.06,2.74-.21,4.09-.09,1.58.13,2.61.53,1.36,2.57-2.2,3.59-.52,6.89,3.7,7.79,3,.65,5.66-.45,8.23-1.86,3-1.66,5.25-.7,6.74,2.22,1.94,3.81,3.76,7.73,2.6,12.16-1.58,6.07.52,11.67,1.8,17.41.3,1.36,1.46,3.37-.37,4-1.62.58-2.33-1.56-3.08-2.79-1.12-1.83-2.24-3.62-4.17-4.7a4.48,4.48,0,0,0-4.75-.23c-1.66,1-2,2.61-1.76,4.36a11.43,11.43,0,0,0,3.26,6.82c4.26,4.52,8.46,9.11,11.09,14.86.64,1.38,1.69,2.79.67,4.24-1.14,1.64-2.43,0-3.63-.24-3.25-.76-6.22.34-7.26,3.19-1.53,4.2-2.59,8.79-.13,13.16a24.46,24.46,0,0,1,3.25,10.78,7.88,7.88,0,0,0,5.43,7.57c3.12,1.26,7.42,9.9,6.2,12.79-1.1,2.59-3.64,2.07-5.46,1a19.83,19.83,0,0,1-5-4.51c-5.71-6.92-13.7-7.22-21.57-7.21-5.15,0-7.16,4.55-4.57,9.12a18.12,18.12,0,0,0,21.7,8.49,37.27,37.27,0,0,1,4.79-1.38,2.22,2.22,0,0,1,2.79,2.25c0,1.59-.82,2.71-2.58,2.25-2.71-.71-3.78.92-4,3-.78,7-4.72,12.71-7.23,19a66.74,66.74,0,0,0-4.3,31.09,18.21,18.21,0,0,0,3.71,9.2c9,12,20.51,20,35.91,21.22a9.27,9.27,0,0,1,5.72,2.34,70.32,70.32,0,0,0,17.18,11c5.3,2.45,7.71,8.08,12.59,11,1.26.75,1.08,2-.34,2.88-3.9,2.39-13,1.33-16.58-2-2.12-1.94-4.2-3.94-6.42-5.77-1.11-.92-2.58-1.22-3.68.05s-1,3.32.48,3.95c8.18,3.59,10.49,12,15.53,18.17,12.51,15.3,22.42,32,28.63,50.76,3.6,10.91,5.37,22.47,10.48,32.82,10.16,20.55,6.62,42.32,6.27,63.79-.09,5.48-3.15,10.4-4.92,15.54-2.33,6.72-6.72,13.14-2,20.52H679.38c.8-3.65.13-7.69,2.44-10.92,1.56-2.19,1.25-3.68-.51-5.52-3.4-3.57-5.89-7.7-6.4-12.75a52.32,52.32,0,0,1,1.33-18.48q5.63-22,11.21-44c4-15.65,6.7-31.72,14.52-46.17s18.79-26.27,31.43-36.61c.94-.77,2-1.68,3.26-1.09m-3,44.48,2.7-20.35-1.09-9.07M564,266.26l9,24.26c.64,1.72,1.3,4.06,2.84,4.5,4.36,1.25,5.53,5.23,7.94,8.14,2.21,2.68,4.13,5.67,7,7.72,19,13.54,53.82,17.53,73.89-12,5.32-7.84,7.06-17,11.22-25.2a3.21,3.21,0,0,0-.05-3.08c-1-1.71-.38-3,.74-4.52,1.83-2.47,2.85-6,.23-7.83-6.63-4.67-12.71-10.3-20.6-13.05-21-7.33-42.56-5.89-64.13-3.45-11.93,1.34-21.24,6-23.9,19.92a12.66,12.66,0,0,0-8.53-6.58c-1.31-.35-2.91-.85-3.67.69-.83,1.69.74,2.34,1.92,3,.95.53,1.88,1.07,2.82,1.61-3-.67-6.09-2.27-8.73.16-2.23,2.06-3.9,4.74-6.27,7.71.21-3.32,1.81-5.16,2.92-7.27s2.59-5.11-2.29-5c-2.34,0-2.19-1.81-2.17-3.65,5.81,3,6,2.88,7.51-3.19a3.51,3.51,0,0,1,1.64-2.06c2.33-1.62,1-2.73-.62-3.65-4.06-2.29-5.91-1.49-10,4.48-2.56-5.66-8.1-7.42-12.74-10.29-3.21-2-7-3.13-10-5.36-3.61-2.68-5.87-5.73-11.85-5.3s-12.29-3.58-18.43-5.73c-5.18-1.81-9.95-6.15-16-2.27-.67.42-1.79.19-2.7.16a60.57,60.57,0,0,0-14.86,1.53c-5,1-9.5,2.68-12.24,7-2.41,3.8-6.83,7.18-4.2,12.77.22.46-.2,1.19-.17,1.78.8,12.62-.3,25.67,8.19,36.57a13.78,13.78,0,0,1,1.34,2.37c.27.55.44,1.42-.3,1.5-5.72.63-1.9,3.58-1.1,5.27a24.19,24.19,0,0,1,1.91,9.28c.31,5.45.41,10.9.65,16.35,1.11,24.8,4.28,49.27,12.95,72.68,9.4,25.41,21.88,48.92,42.9,67,7.31,6.29,6.33,15.6,7.74,24a1.23,1.23,0,0,1-.28.85c-4.8,6-3.46,13.52-4.95,20.32-1,4.58,1.09,7.7,5.59,9.59a80.78,80.78,0,0,0,11.48,4.25c18.81,4.68,38,6,57.28,6.19a28.87,28.87,0,0,0,15.47-4.68c3.23-2,5.83-4.78,5.15-8.9-1.52-9.18.74-17.71,3.53-26.29,1.78-5.47,3.84-11.07,4.18-16.71s-1.17-11.34-2.54-16.93c-1-4.21-3.15-8.8-.58-12.8,6.29-9.79,12.8-19.46,19.83-28.73,3.48-4.59,7.3-9,10-14,4.21-8,7.66-16.32,9.09-25.48,1.61-10.28,7.58-19.39,8.42-30,.28-3.49-.48-7.2,1.44-10.67,2-3.62.75-4.87-3.35-5.59-3.8-.67-5.46,2.81-8.54,3.47-10,2.14-19.9,3.92-30.12,2.08-15.41-2.78-30.09-6.63-38.88-21.59C569.53,290.49,566.42,278.43,564,266.26ZM336.4,660.88c2.84,3.49,4.77.31,7.17-.33,1.76-.47,4.34,1.55,5.32-1.43.69-2.1,1.69-4.35.82-6.63-1.13-3-1.36-6,1.73-7.58,3.44-1.73,5.56,1.14,7.52,3.47a63,63,0,0,0,10.65,9.79c1.51,1.12,3.13,2.14,5,.81s1.51-3.46.9-5.39c-1.34-4.2-5.11-5.32-8.69-6.14-1.43-.32-3.13-.36-3.06-1.74.24-5.2-4.8-6.45-6.89-9.84a2.58,2.58,0,0,0-3-1.48c-2.84.71-3.66-.63-3.14-3.17.56-2.69-.46-4.13-3-5.21-3-1.28-3.89-4.07-3.5-7.21.16-1.27.68-2.41,2.15-2.57s1.77.93,2.09,2c1.17,3.85,4,6.45,6.83,9.21a78.34,78.34,0,0,0-3.26-8.21c-1.18-3-2.07-6-3.13-9-2.07-5.84-1.56-6.74,4.31-5.46,3.83.84,5.57-.91,6.57-3.8a28.1,28.1,0,0,0,.83-14.71c-1.54-7.68-6.39-9.19-12.71-4.32-.36.28-.83.5-1,.87-1.18,2.06-2.6,2.57-4.35.27a21.06,21.06,0,0,0-.36,9.08c1,6,2,11.91,4.18,17.59.38,1,.86,2.09-.15,2.95-.73.63-1.39.17-1.86-.53A83.54,83.54,0,0,0,333.81,600c-5.34-5.26-6-9.85-2.87-15.92.05-.1-.32-.42-.5-.64-4.25,1.75-6.71,7.55-5.26,13.35.72,2.92.81,5.26-1.7,7.34-1.51,1.25-1.65,3.07-1.4,5a18.11,18.11,0,0,0,5,10.41c4.47,4.71,9.13,9.27,12.24,15.1.58,1.08,1.32,1.9.68,3.3-1.48,3.22-3.18,6.19-6.88,7.16a5.79,5.79,0,0,0-4.22,3.79c-1.47,4.28-4.28,7.75-7.11,11-5.35,6.12-8.92,13.73-15.95,18.45a93,93,0,0,1-26.48,12.4c-5.62,1.6-8.41.27-11-5.08a16.47,16.47,0,0,1-.62-14.08,266.74,266.74,0,0,0,14-46c2.62-12.1,5.15-24.26,3-36.9-2.57-15.24-3.61-30.67-4.33-46.11a24.49,24.49,0,0,0-2.91-10.42c-.95-1.8-5.41-3.68.11-5.54,1.15-.38.33-2-.17-2.84a11.51,11.51,0,0,1-.46-11.08,5.92,5.92,0,0,0,.47-4c-2.66-7.26-2.88-15.28-5.91-22.2s-3.07-13.37-1.21-20.25c.63-2.34,1.37-4.65,2.1-7,1.1-3.54-.36-6.47-3.83-7.3-4-.95-3.92,2.25-4.51,4.66a20.44,20.44,0,0,0-.31,2.71,211.36,211.36,0,0,0-1.2,30.4c0,1.28.55,3.26-1.12,3.52-2,.31-1.9-1.91-2.42-3.23s-.27-3.17-1.95-4.23c-.88,2-.12,3.62-.06,5.25.14,4.11,2.61,8.2,2,11.94-1.13,7,.65,13.18,3.05,19.43a7.1,7.1,0,0,1,.45,4.42c-1.17,4.5-.62,9-.31,13.57,1,15.22,5.63,29.69,9.11,44.4,1.4,5.9,2.36,12.1,5.93,17,4.53,6.25,3.3,12.7,1.72,19.11-2.13,8.67-4.93,17.18-7.43,25.77-3,10.32-6.67,20.45-7.89,31.25-1.47,13,2.6,24.27,12.28,32.66,8.81,7.65,14,16.89,16.61,27.91.34,1.41.21,3.44,2.3,3.33s2.89-1.93,3-3.9c.19-2.71,0-5.49.6-8.13,1.82-8.66,4.27-17.21,5.78-25.92,1.88-10.8,9.52-16.68,17.22-23.08,3.74-3.12,9.74-3.37,11.55-8.45C334.32,668.82,339.14,666.17,336.4,660.88Zm338.76,22.84c6.08-.31,6.49,4.44,7.36,8.73.33,1.62.15,3.35.54,4.95.51,2.06.67,5.66,3.32,4.86s.93-4,.19-6c-1-2.68-2.4-5.17-2.77-8.11-.74-6,2-9.77,7.83-10.6,1.76-.25,4.12-.15,4.18-2.57.09-3,2.17-4.42,3.85-6.34,1.91-2.19,5.16-4.73.3-7.37a1,1,0,0,1-.28-1.58c2.85-4.17-.39-6.42-2.85-8.79-5.54-5.31-6.57-11.84-2.8-18.3a3.86,3.86,0,0,1,4.12-2.19c1.68.25,3.56.72,3.86,2.64.71,4.4,3.25,7.36,6.73,9.81,1.09.77,2.32,1.9,1.3,3.41s-2.64,1.35-4.08.62a6.57,6.57,0,0,1-3.69-5.85c-.11-1.63-.82-3.21-2.69-3-2.23.22-2.35,2.36-2.11,3.89a58.83,58.83,0,0,0,1.79,8.34c1.89,6.18,5,6.61,9,1.77,3.21-3.9,3.91-3.84,7.51.23,1.86,2.1,3.79,4.42,6.58,1,.58-.72,1.14-2.34,2.35-1.35s.25,2.42-.49,3.24c-2.87,3.2-2.63,6.72-2,10.64,1.1,6.85,1.38,13.47-2,20.25-2.12,4.3-2.51,9.6-4.18,14.33a5.71,5.71,0,0,0,.29,4c.26.7.47,1.56,1.36,1.62s1.27-.72,1.6-1.4a22.56,22.56,0,0,0,2-7.42,81.87,81.87,0,0,1,4.69-20.39c2.81,31.82-8.24,58.89-21.05,85.64,10.94-11.44,15.27-26.31,21.16-40.3,6.08-14.44,6.32-30,6.37-45.89,2.65,1.42,1.83,3.14,2.83,4.59,1.89-3.17,5.85-.8,8-3.22,5-5.58,9.1-11.77,11-19.06,1.15-4.28-2.57-9.92-6.89-10.87-2.35-.52-4.68-.09-4.81,3.14a7.9,7.9,0,0,1-1.88,4.54c-2.71,3.53-5.49,7-3.91,11.92a1.68,1.68,0,0,1-1.6,2.27,1.62,1.62,0,0,1-1.75-1.71c.17-2.58-1.15-3.81-3.36-4.68a2.91,2.91,0,0,1-1.69-3c.09-1.46,1.17-2,2.49-2.18s2.62-.16,2.78-1.75-1.4-1.77-2.38-2.37c-2.26-1.39-5.52-2.28-2.75-6a1.38,1.38,0,0,0-.12-1.22c-2.05-3.15-.21-3.55,2.18-2.74a10.76,10.76,0,0,0,7.09-.18c1.85-.6,4.37-.89,4.67-3s-2.35-2.39-3.86-3.2c-4.1-2.2-8.06-4.47-9-10.21,2.73,1,4.93,2,7.18,2.74a2.91,2.91,0,0,0,3.63-1.09c1-1.47.25-2.53-1-3.46-.82-.61-2.19-1.58-1.09-2.48,3.77-3.09,1.64-4.22-1.44-5.37-1.82-.68-2.22-2.49-2.38-4.12-.7-7-6.82-10.91-9.49-16.77a1.58,1.58,0,0,0-2.39-.57c-5.83,4.61-10.47-3-16-1.54-.29.08-1.22-1-1.29-1.61-.39-3.18-3.15-6.76,1.41-9.22a1.63,1.63,0,0,0,.81-2,1.07,1.07,0,0,0-1.49-.61c-2.17,1-5,1.24-6,3.75-3.26,8.26-7,16.42-6.56,25.66a25,25,0,0,1-1.53,9.37c-.73,2.13-1.59,3.25-3.8,1.24s-4.47-1.34-4.72,1.37c-.46,4.88-2.33,9.36-3.19,14.1-.19,1-.49,2.35,1.06,2.52,6,.69,5,5.93,6.23,9.59a3.65,3.65,0,0,1-2.27,4.85c-1.61.61-2.15,1.93-2.71,3.4a6.23,6.23,0,0,1-4.23,3.78c-4.55,1.43-5.25,3.83-2.16,7.46a34.45,34.45,0,0,0,3.86,3.31,38.88,38.88,0,0,0-5.25,1c-2,.72-4.75,1.61-4.61,3.75.17,2.64,3,1.65,4.84,1.66,2.67,0,2.86,1.15,1.48,3.1C675.92,681.8,675,682.28,675.16,683.72ZM505,127.35c-1.43.57-1.81,2-2.55,3.05-4.24,6.29-8.89,12.22-14.86,17a15.13,15.13,0,0,0-4.78,5.39c-5.09,11.43-12.28,21.42-20.48,30.82-5.39,6.18-8.1,13.76-9.09,21.91-.43,3.53,1,5.19,4.6,5.84,7.32,1.34,12.45-3.25,16.63-7.39,11.38-11.23,21.94-23.26,30.71-36.83a71.27,71.27,0,0,0,7.09-15c2.72-7.5,2-15.57,4.6-23,.71-2,0-2.74-2.32-2.11a9.23,9.23,0,0,0-5,2.77c-1.49,1.76-3.13,3.39-5.15,5.56C504.29,132.18,507.25,130,505,127.35ZM730.62,593.49c2.14-5.91,3.27-6.14,8.18-1.52.67.64,1,1,1.66,0,2.49-3.55,3.67.47,5.32,1.13,2.08.83,3.86,2.36,5.86,3.42,1.76.94,3.29,2.1,2.54,4.21-2.36,6.7,1.31,10.09,6.52,13,3.76,2.13,7,.74,9.59-1.48,3.05-2.61,6-6.31,5.52-10.26a27.63,27.63,0,0,0-2.87-7.93c-2.94-6-11.16-7.31-14-2-1.72,3.19-3,2-4.71.74-3.11-2.41-6.13-4.94-9.17-7.43-.68-.56-1.66-1.12-1.22-2.16s1.53-.93,2.39-.74c4.24,1,8.08-.17,11.85-2a4.7,4.7,0,0,1,4.77.25c4.45,2.85,9.41,4.86,13.31,8.62,1.23,1.18,3,3.88,4.64,1.87,1.17-1.46-1.54-3.2-2.89-4.56a3.77,3.77,0,0,0-1.52-1c-6.73-2.11-10.89-8.67-17.92-10.3a4.66,4.66,0,0,1-2.34-2c-1.34-2.05-3.32-2.94-5.49-3.77-6.1-2.36-12.28-4.57-17.58-8.58-2.32-1.75-6.34-.93-7.32-4.63-.85-3.22,1.25-6.15,1.21-9.34,0-1,.48-2.07.57-3.12.25-3.2-.63-5.95-3.33-8-.62-.45-1.14-1.12-2-.65s-.58,1.29-.47,2a20.17,20.17,0,0,1-.16,8.54c-1.56,5.82-2,11.89-4,17.64-.47,1.34-1.34,3.71.82,4.36,2,.6,2.62-1.53,3.34-3,.44-.91.5-2.42,1.87-2.2,1.61.25,1.29,1.86,1.31,3,.06,3.39.56,6.49,3,9.22,1.62,1.81,1.87,4.24,1.48,6.85A25.52,25.52,0,0,0,730.62,593.49ZM364.79,704.21c-1.23-1.72-2.68-1.47-4-1.66-.9-.13-2.36-.77-1.69-1.47,2.13-2.23-.25-3.22-1-4.44-2.31-3.66-4.57-7.26-5.07-11.74-.24-2.19-2-3.72-3.58-5.09-1.19-1-2.44-1.08-3.82.52-3.51,4.07-6.39,9-11.69,11s-4.71,8.3-8.61,11.27c-.52.4.4,1.31,1,1.82,2.2,2,1.58,3.46-1,4.14-2.18.56-2.12,1.43-1.17,3.2,1.4,2.59,2.85,5.06,3.43,8.21.8,4.39,4.61,5.7,5.69,2.79,1.36-3.66,4.89-3.2,6.75-5.11,3.25-3.31,7-3.77,11.13-4.13,1-.09,1.88-1.52,3-1.92C358.19,710.06,359.81,705,364.79,704.21Zm388.59-176.6c2.33-.66,2.14-2.6,1.84-4.37-.65-3.81,1-6,4.47-7.33a20.64,20.64,0,0,0,7.14-3.89c1.51-1.4,1.92-3.2-.25-3.94-3.26-1.12-3.66-3.62-4.16-6.35-.67-3.69-.78-7.94-5.3-9.21-2.82-.79-4.58-6-8.71-2.06-.9.87-1.61-.84-2-1.82-.51-1.45-1.21-3.59-2.77-3-2.33.87-5.2.69-7,2.91-3.5,4.31-1.06,10.11-3.67,14.65a1.27,1.27,0,0,0,.52,1.09c3.85.88,1.69,3.22,1.48,5.29-.46,4.6-3.66,9.79,2.75,13.13,1.68.88.54,1.86-.84,2.43-3.63,1.48-2.42,3.28-.09,4.81,2.63,1.72,5.18.55,5.37-2.57.18-2.81,1.52-4.69,4-5.48,2.74-.89,3.57,1.45,4.49,3.4A3.63,3.63,0,0,0,753.38,527.61ZM418.46,960.71c0,1-.55,2.09.69,2.49a1,1,0,0,0,1.32-.93c-.11-2.92,2.49-4.36,3.55-6.65,3.25-7,6.75-13.84,10.29-20.69,3.89-7.52,8.45-14.74,11.75-22.5,3.68-8.64,8.24-16.8,12.54-25.08,2.22-4.29,3.58-9,6.47-13,4.82-6.62,7.43-14.46,11.58-21.46.49-.83,1-2.19-.24-2.79s-1.79.78-2.44,1.55a11.34,11.34,0,0,0-1,1.52c-9,14.33-16.39,29.52-24.17,44.48-7.93,15.25-16.89,30-23.12,46.11C423.47,949.58,419.73,954.7,418.46,960.71ZM760.83,630.13c3-.25,3.81-1.87,4.93-3,3.59-3.48,7-7.12,11.12-10s5.11-2.71,6,2.42c.28,1.68.32,3.5,2.52,3.72s3.42-1.09,4.23-2.84c.88-1.92,1.5-4,2.39-5.88,4.32-9.32,6-19.33,7.73-29.31.15-.88.41-2-.64-2.38s-1.48.68-1.92,1.46c-3.24,5.79-6.47,11.59-9.75,17.36a6,6,0,0,1-1.91,2.48c-5,2.46-7.78,7.11-11.36,11C769.78,619.82,765.63,624.7,760.83,630.13Zm13.1,193.5c-.49-9.54,3.06-18.44,4.33-27.68a9.46,9.46,0,0,1,2.55-5.25c5.8-6,4.35-13.36,3.93-20.5a2.66,2.66,0,0,0-2.81-2.49,25.09,25.09,0,0,0-11.86,2.49,2.81,2.81,0,0,0-1.78,2.9,2.86,2.86,0,0,0,2.32,2.49,22.24,22.24,0,0,0,3.55.67c2.48.26,3.49,1.18,2.56,3.88-1.32,3.85-1.78,8.07-3.51,11.69C768.05,802.62,770.87,813.08,773.93,823.63ZM438.2,269.26c.17-2.14,1.06-4.05.84-6.23-1-10-3.28-19.89-2.63-30.07.3-4.59.77-9.48-3.05-13.25-1.12-1.1-.21-4-2.4-3.76s-2.47,2.78-3,4.64a26.55,26.55,0,0,0-.65,3.56C424.77,240.63,431.68,254.86,438.2,269.26ZM678.63,507.14c0,3.81,1.91,6.27,4.43,8.36a1.3,1.3,0,0,0,2.4-.93c-.21-6.39-.79-12.86,5.48-17.21,1.33-.93.82-2.43.8-3.79a17.26,17.26,0,0,1,2.77-10.29c4.24-6.29,7.67-12.95,8.19-20.73.06-.91.15-2-.83-2.38-1.39-.52-1.87.74-2.16,1.71-.92,3.09-1.81,6.05-5.29,7.39-.79.29-1.23,1.65-1.7,2.58-2.86,5.72-4.42,12.07-8.45,17.23a4,4,0,0,0-.73,2.53c.29,4-1.35,7.38-3.14,10.75C679.55,504,678.56,505.52,678.63,507.14ZM774.52,536c-.83-5.88-1.58-10.82-2.21-15.77-.68-5.34-3.13-6.46-7.58-3.41a6.8,6.8,0,0,0-3.17,6.19c.3,5.11-.56,10.33,1.26,15.3.54,1.47.72,2.67-1.21,3.16-1.2.31-2.61.72-1.8,2.38A2.47,2.47,0,0,0,763,545c3.36-1.29,6.88-2.39,9.56-5A5.88,5.88,0,0,0,774.52,536Zm-577,134.71c-.63,1.85,2.07,1.73.79,3.87-2.14,3.58-3.29,7.93-1.08,11.83,1.76,3.11,4.07,6,5.76,9.16,1.07,2,2.53,1.81,4.58,1.32,3.8-.9,3.54-4.31,4.29-6.68,1-3.09,2.09-7.34.74-9.71C209.46,675,203.93,672,197.48,670.72ZM561.25,235.78c-.25-6.57-3.42-8.26-9.4-5.47-4.13,1.94-8.79,4.2-12.87,1-5-3.91-11-5.52-16.1-9-1.21-.84-2.74-1.17-3.55.35s.55,2.46,1.83,3a173.54,173.54,0,0,1,23.67,12.3,20,20,0,0,0,11.75,2.86C559.59,240.54,563.25,240.48,561.25,235.78Zm179,159.54a26.63,26.63,0,0,0-6.51,13.33c-.36,2.23-.89,3.94-3.54,4.57-3.06.74-2,2.28-.3,3.72.87.72,2.39.41,2.9,1.76-1,.67-2.79-.7-3.13,1.05-.27,1.46,1.16,1.95,2.25,2.46,2.33,1.11,4.16.9,5.87-1.45a15.79,15.79,0,0,0,2.87-10.15C740.59,405.56,741.83,400.49,740.27,395.32Zm4.35,79.56c-.46,2.56.27,3.82,2.38,4a3.06,3.06,0,0,1,3.06,2.23c.59,2.1,1.69,3.43,3.85,1.87,2-1.45,2.38-3.52.75-5.51a21.38,21.38,0,0,0-3.13-2.58c-2.7-2.27-3.47-14.31-1-16.82a2.68,2.68,0,0,1,1.52-.88c5-.25,4.33-2.27,1.7-5.11a18.82,18.82,0,0,1-1.79-3.14c-.79-1.31-1.7-2.76-3.51-2.17-2,.66-2.07,2.54-1.65,4.17a25.09,25.09,0,0,1,.32,8.51C746.67,464.88,747.06,470.38,744.62,474.88Zm30.09,28.19a15.4,15.4,0,0,0-2.9-7.37c-2.38-3.11-4.89-6.13-7.41-9.13-1.29-1.54-2.52-4.17-5-2.37s-1.8,4.39.13,6.3c4.23,4.19,7.86,8.73,10,14.39.49,1.32,1.56,2.38,3.17,1.95C774.46,506.37,774.71,504.83,774.71,503.07Zm-430.43-7.56a40.4,40.4,0,0,0,0-5.46c-.44-3-2.47-3.84-4.9-2.37-3.7,2.25-5.88,5.63-5.56,10.15.24,3.3,4.23,7.36,6.8,6.76,3.57-.84,3.53-4.06,3.83-6.88A11.5,11.5,0,0,0,344.28,495.51ZM684.09,800.93c.14-1.4.39-3.43-1.36-4.18-3.71-1.59-7.1-4.07-11.27-4.53-1.61-.17-3.06.12-3.92,1.64-1,1.74.38,2.79,1.24,4,2.41,3.32,6.55,4.11,9.63,6.55C682.09,807.31,683.92,806.07,684.09,800.93Zm-100-571.84c-.61.47-1.17.92-1.76,1.35-1.79,1.29-3.43,4.11-5.58,3.16s0-3.41.14-5.21c0-.8,0-1.64-.88-1.87a2.08,2.08,0,0,0-1.64.37c-1.24,1.09-2.76,2.13-3.44,3.54-1.35,2.81-3.13,6.24-1.66,8.95,1.34,2.47,4.39-.08,6.68-.24a24.05,24.05,0,0,0,4.87-1C586.46,236.52,587,235,584.08,229.09ZM288.38,749.25c-.19-1.81-1-3.31-3.2-3.47s-8.06,4.15-7.76,5.67a6,6,0,0,0,5.07,5C284.35,756.83,288.41,751.76,288.38,749.25Zm414.49,61.62c3,3.18,6.82,3.63,10,5.16,3.5,1.68,6,4.56,9.12,6.59a1.76,1.76,0,0,0,1.64-.06c1.07-.92.29-2-.15-2.87C721.13,814.86,709.31,809.6,702.87,810.87ZM255.93,480.33c.86-10.08,1.08-20.18-1.27-30.15C253,460.3,255,470.28,255.93,480.33ZM663.5,690.87a2.5,2.5,0,0,0-2.64,1.33,3.52,3.52,0,0,0-.33,3.83c1.15,1.89,2.92,3.72,5.06,2.85,2.3-.93,5.39-2.66,5.87-4.6.53-2.12-3-2-4.9-2.59C665.69,691.44,664.82,691.22,663.5,690.87ZM322.7,493.79a23.36,23.36,0,0,0-6.92,11,6.07,6.07,0,0,0,1,4.77c.49.78,1.07,1.56,2.14,1.29a1.61,1.61,0,0,0,1.1-1.79C319.82,503.87,321.76,499.07,322.7,493.79ZM371.15,617.1c-1.73,8.35-.58,16.46,2,25.42C375.29,633.17,371.22,625.32,371.15,617.1ZM674.88,247.61c4.91-.27,5.18,1.72,3.09,4.91a1.37,1.37,0,0,0,.31,2,2.06,2.06,0,0,0,1.7-.06,8.29,8.29,0,0,0,4.09-6.16c.28-1.82-1-2.72-2.47-3.29C679.11,244.08,676.88,244.09,674.88,247.61Zm40,200.74c.69,2.22-1.38,5.82,2,6.58,2.4.54,2.09-3.09,3.35-4.65,1.64-2,.21-3.95-1.31-5.53-.84-.87-2-1.9-3.13-1.32C713.55,444.55,715,446.63,714.84,448.35ZM656,735.6c2.64-.34,6.49-.75,6.18-3.28-.41-3.37-4.71-1.77-7.23-2.55s-4,2.25-3.92,3.3C651.3,735.5,654.11,735.1,656,735.6ZM411.7,981.28a18.19,18.19,0,0,0-3.93,12.16c.06.91.18,1.95,1.18,2.23,1.25.35,1.41-.78,1.68-1.61C411.94,989.91,412.92,985.73,411.7,981.28ZM745.22,550.72a10.09,10.09,0,0,0-1.82-4.64c-1-1.59-2.15-1.83-3.73-.68s-2,2.23-.43,3.6a5.76,5.76,0,0,1,1.58,2.66c.38,1,.08,3,1.65,2.72S745,552.41,745.22,550.72ZM383.68,768.48a2.54,2.54,0,0,0-2.63,3c.12,1.94-.3,4.87,2.33,5,2.21.14,2.48-2.72,2.89-4.45S385.36,769.05,383.68,768.48ZM775.37,559.73c-.09-1.49-.11-3.27-2-2.87-2.08.45-2.93,2.46-3.1,4.44-.13,1.6.81,3.32,2.42,3.21C775.7,564.3,774.63,561.36,775.37,559.73ZM684.1,267.58c.22,1.25-.1,3.33,1.61,3.16,2.75-.28,3-2.91,3.29-5.12.15-1.17.19-2.77-1.54-2.58C684.93,263.31,684.16,265.25,684.1,267.58Zm-268,728.7,2.7-15.63C415.24,986.08,413.88,992.15,416.12,996.28Zm-19.45-21.17c-.26,3.55.05,5.83-1.06,7.91a1.78,1.78,0,0,0,1.3,2.79,1.94,1.94,0,0,0,2.49-1.95A11.3,11.3,0,0,0,396.67,975.11Zm317-385.73c1.76-.06,3.78-.23,3.89-2.26s-2.1-2.2-3.67-2.42-3.33-.06-3.51,1.87C710.15,588.7,711.94,589.17,713.63,589.38ZM740.25,533c-1.58.06-2.67.65-2.49,2.12.29,2.27,2.18,3.22,4.09,3.53,1.63.26,1.74-1.44,1.79-2.55C743.76,533.63,741.82,533.35,740.25,533ZM345.47,557.87c-1.35-2.16-3.93-3.14-4.93-5.55-.36-.87-1.17-1.58-2.15-1-1.18.76-.66,1.84-.13,2.78C339.82,557,342.87,556.89,345.47,557.87Zm311.9-15.11c1.21-.47,2.45-1.24,2.38-3,0-1.36-.83-2.32-2.25-2.14-1.81.23-2.31,1.66-2.3,3.25C655.21,542,655.75,542.83,657.37,542.76ZM618.24,706.33a1.39,1.39,0,0,0,1.53-1.79c-.23-1.49-.52-3.11-2.41-3.36-1.14-.16-1.67.68-1.55,1.7A3.72,3.72,0,0,0,618.24,706.33ZM678.61,649c0-1-.31-1.86-1.37-2-1.32-.13-1.8.84-1.88,2-.07,1,.26,1.87,1.32,2C678,651.13,678.43,650.15,678.61,649ZM488.92,826.88c.07-1-.27-1.68-1.21-1.48-1.78.39-2,2.05-2.39,3.47-.24.85.13,1.62,1.1,1.38C488.13,829.82,488.36,828.15,488.92,826.88ZM753.57,543.7c-.11-1.13-.58-2.05-1.77-2.23s-2,.56-1.86,1.81a2,2,0,0,0,2,2A1.47,1.47,0,0,0,753.57,543.7ZM665,240.79c-.91,0-1.84.21-1.58,1.11.45,1.51,2,1.53,3.3,1.88.61.17,1.42-.17,1.28-.85C667.72,241.33,666.16,241.24,665,240.79ZM351.2,492.4c.08-.76.12-1.62-.95-1.48a2,2,0,0,0-1.68,2.22c0,.86.11,2,1.29,1.78S350.9,493.33,351.2,492.4ZM482.14,840.32c.07-.79-.2-1.45-.88-1.37-1.83.22-2.08,1.88-2.57,3.22a.87.87,0,0,0,.83,1.25C481.33,843.18,481.52,841.49,482.14,840.32Z"/><path d="M211,1077c.44-29.85-1.33-59.62-3.32-89.38a144.75,144.75,0,0,1,2-33.51,6.56,6.56,0,0,1,1.47-3.94c1.93,1.12,1.27,2.9,1.33,4.39.68,17.84.17,35.73,2.06,53.53.16,1.54-.21,4.37,1.56,4.2,2.29-.22,2.11-3.23,1.73-4.92-1.35-6-1.44-12-1.77-18.06-.54-10.11,1.95-20.11.8-30.3-.43-3.85.72-7.91,5.4-9.53.84-.29,1.52-1.45,2-2.35,4.09-7.64,11.89-12.57,15.15-20.81a2,2,0,0,1,2.2-1.31c4.6.65,5.61-2.49,6.43-5.94q1.41-6,3-11.91c.4-1.55.48-3.36,3.25-4.24-2.44,16.3-4,32.3-2.86,48.49,2.68-28.9,4.62-57.92,19.87-84.28,2.19,2.43,1.45,4.4.95,6.21a111.07,111.07,0,0,0-4,21.88c-.43,6.38,1.5,12.75,3.61,18.86.72,2.09,2.36,2.24,3.16.24,2.68-6.64,8.66-12.41,5.77-20.61,3.95-5.43,3.24-12.91,7.9-18,.69-.75,1.61-1.62,2.77-1.2,1.4.5,1.17,1.92,1.45,3.08C295,886.76,296,896,294,905.32c-.25,1.19-.52,2.76,1.05,3.64,1.68-.77,1.1-2.33,1.28-3.58s.07-3,1.77-3.31,2.12,1.37,2.9,2.44c1.33,1.83,2.63,3.69,4.07,5.44s3.18,2.59,5.25,2c4.47-1.24,7.06,1.61,8.76,4.63,3.1,5.52,8.25,7.32,13.66,8.72,8.74,2.25,17.66,3.8,26.29,6.6,4.35,1.41,5.55,4,5,8.26-.71,5.26-4.4,8.49-7.61,12.07-1.31,1.46-3,2.57-4.28,4.06-6.48,7.57-13.88,12.26-24.61,12-9.42-.23-18.66.5-27.44-4-6.92-3.58-10.75-2.7-13.27,2.2-2.43,4.73-.92,9,4.31,11.56,7.56,3.64,15.79,5.24,23.76,7.63,6.51,2,6.5,1.8,2.46,7.44a186.26,186.26,0,0,0-24.88,47.31c-.55,1.57-1.09,3.15-1.79,4.66-.56,1.22-1.56,1.27-2.65.59-.83-.52-1.22-.82-.6-2.06,1.65-3.28-.56-3.41-2.69-2.51-2.4,1-4.68,1.88-7.35,1.63a2,2,0,0,0-2.24,1.84,1.94,1.94,0,0,0,2.08,2c3.61,0,5.42,4.12,9.23,3.76,1.3-.12,1.9,1.37,1.53,2.75-1.38,5.23-2.8,10.44-4.75,15.86-1.42-5-4.92-7.41-9.05-9.61-3.51-1.87-4.79-5.68-5.44-9.52-.19-1.18-.56-2.7.63-3.38,4.68-2.67,3.31-6.52,2.33-10.39-.28-1.12-.87-2.29-.19-3.57,2-.28,1.93,1.42,2.44,2.54.69,1.49,1.87,2.06,3.34,1.42,1.79-.77,1.48-2.39.49-3.37-2.55-2.52-.54-3.09.88-5.27,2.53-3.89,6-6.58,8.91-9.9,2.41-2.74-.19-9.12-4-10.55-1.59,1.54,1.77,2.87.24,4.4-12.18-5.89-11.55-9.66-10.11-19.31.56-3.73,2.15-7.22,2.48-10.76.63-6.72-.54-13.36-6.39-18-1.66-1.33-3.34-2.62-4.94-4-1.24-1.07-3-2.33-1.17-4s3,.08,4.08,1.34c1.29,1.49,2.52,3,3.8,4.53.82,1,1.84,1.72,3.16,1.32,1.6-.47,1.74-1.84,1.76-3.29,0-4.47-.44-8.79-3.13-12.55-2-2.83-2.4-6.19-3.08-9.43-.73-3.42-1.12-6.86-4.17-9.28-1.47-1.16-1.05-3-.81-4.7.66-4.65,1.4-9.29,1.9-14,.15-1.33.58-3.56-1.53-3.6-1.52,0-1.51,2-1.7,3.32-2.42,17.26-4.22,34.59-5.3,52-.39,6.14-1.47,12.49,1.48,18.47.3.61-.23,1.73-.56,2.54-1.19,2.91-2.68,5.32,1.29,7.95,2.51,1.67-.43,5-1.07,7.26-1.65,5.92-.05,10.21,5.71,12.35a41.44,41.44,0,0,1,4.14,1.85c.88.44,1.63,1.34.93,2.2-2.42,3-3.31,7.35-7.6,8.61-2.63.77-3,2.33-2.56,4.86a52.86,52.86,0,0,1,.5,8.55c.18,13.77,3.69,27.31,2.8,41.14H244.63c-4.68-6.65-12.62-6.37-15.46,0Zm11.87-51.57c.35-3,.37-6.43-3.42-6.6-4.05-.18-3.66,3.55-3.87,6.41a19.86,19.86,0,0,0,3.24,12.44c.86,1.34,2.5,3.22.9,4.43-3.92,3-2.92,6.8-2.55,10.56.09,1-.24,2.9,1.84,2.24,1.55-.48,3.92.12,4.09-2.63a7.83,7.83,0,0,0-.9-4.38c-.54-1-.94-2.25.3-2.78,2.73-1.18,4.8-2.76,4.48-6a16.16,16.16,0,0,0-2.69-7.62A8.47,8.47,0,0,1,222.85,1025.43Zm63,8.47c.48,1.68.4,4.26,3,4.16s3.35-2.43,3.46-4.6a3.22,3.22,0,0,0-3.65-3.63C286.23,1029.91,286,1031.87,285.86,1033.9Zm10-16.46a2.49,2.49,0,0,0,2.56-2.54c0-2.15-1-3.84-3.34-4.08a2.24,2.24,0,0,0-2.68,2.36A4.38,4.38,0,0,0,295.82,1017.44Z"/><path d="M647.6,0c.3,4.14,2,7.72,3.72,11.48a175.47,175.47,0,0,1,7.54,20.88c1.41,4.52-2.62,4.2-5,4.12-4-.14-8.06-1.33-12.12-1.56-10.6-.61-21.25-.51-31.79-1.58-4.29-.43-8.57.19-12.78-.61-2.28-.43-3.09-1.59-1.82-3.87,1.76-3.15,3.28-6.41,5.25-9.48a44.2,44.2,0,0,0,7-19.38Z"/><path d="M9,1077c2.89-12,6.74-23.8,10.8-35.48.35-1,.45-2.85,2.22-1.89,1,.53,1.2,1.64.77,3.12-2.27,7.81-4.19,15.71-6.38,23.54-1,3.56-3.34,6.76-2.86,10.71Z"/><path d="M20,1077c1.73-10,4.09-19.79,8.93-28.88.61,10.19-4.86,19.11-6.21,28.88Z"/><path d="M804.45,628.76c-1.26,7.91-2.94,9.62-7.82,8.74-.73-.13-1.65-.12-1.79-1a1.94,1.94,0,0,1,.75-1.48C798.37,633.08,800.65,630.4,804.45,628.76Z"/><path d="M807.58,773.61c-1,2.69-3,3.78-5,4.82a2.29,2.29,0,0,1-2.82-.75,2.41,2.41,0,0,1-.71-2.47c.47-1.36,1.7-1.09,2.67-.8C803.72,775,805.48,773.9,807.58,773.61Z"/><path d="M222.18,477.51c-.23,1.07-.74,2-2,1.92a1,1,0,0,1-.95-1.28c.2-1.13.81-2,2.07-2C222,476.14,222.19,476.79,222.18,477.51Z"/><path d="M267.85,1004.54c-2.63-.51-4.17-1.23-3.41-4.4A6.73,6.73,0,0,1,267.85,1004.54Z"/><path d="M530.17,368.13a9.54,9.54,0,0,1,6.91.28c7.28,3.48,15.06,1.6,22.56,2.49a28.33,28.33,0,0,0,12.18-.76c4.26-1.4,8.08.41,12,1.23,2,.41,1.92,1.67.38,2.84-4.39,3.34-9.7,4.09-14.86,5.2a2.55,2.55,0,0,1-2.6-1.54c-1.9-3.3-5-3.52-8.29-3.39q-6.81.27-13.63.2C539.26,374.63,534.66,372.22,530.17,368.13Z"/><path d="M536.18,281.21c-4.57,12.21-13,19.74-25.11,22.87-16.11,4.18-31.69,3.28-46.23-5.52C492.07,307.54,517.66,310.14,536.18,281.21Z"/><path d="M513,365.63c.78-.57.89-.73,1-.74,2.37-.19,4.86-.68,6.58,1.59.39.51-.19,1.17-.82,1.37C517.11,368.71,515.24,367.29,513,365.63Z"/><path d="M670,268.23c-1.87-2.3-1.56-4.38-1.33-7.28C670.75,263.45,671,265.42,670,268.23Z"/><path d="M332.46,604.61a44.82,44.82,0,0,1,9.08,8.8,5.88,5.88,0,0,1,1,4.74c-.2,1.37-.41,2.3-2.27,1.28A15.21,15.21,0,0,1,332.46,604.61Z"/><path d="M262.72,514.81c-2-2.92-2.69-6-.55-10C264,508.6,262.61,511.72,262.72,514.81Z"/><path d="M745.32,664.24c.33,4.19-1.37,6.89-2.46,9.72-.37,1-1.19,1.85-2.45,1.38a2.68,2.68,0,0,1-1.5-2.55C738.49,668.43,742.41,667.34,745.32,664.24Z"/><path d="M729.49,563.8c3.16,2.21,6.79,2.22,8.15,5.67.38,1,.85,2.15-.11,3s-2,.2-2.84-.51C732.49,569.94,729.8,568.26,729.49,563.8Z"/><path d="M748.71,577.74c.11-.39.1-.6.18-.64,2-1.11,4.14-1.55,6.25-.29a.92.92,0,0,1,.07,1.52C752.9,579.66,750.79,578.77,748.71,577.74Z"/><path d="M740.94,517.28c1.88-7-4.46-12.66-1.53-19.2.53-1.19.4-3,2.27-2.83,1.48.12,1.55,1.67,1.91,2.79,1.5,4.61,1.34,10.07,6.62,12.74a1.71,1.71,0,0,1,.69,1.49c-.38,1.27-1.6,1.17-2.65,1.24C745.51,513.7,741.91,511.92,740.94,517.28Z"/></svg>